<svg version="1.2" xmlns="http://www.w3.org/2000/svg" viewBox="0 0 100 100" width="100" height="100"><style>.a{fill:#5944ff}.b{display:none;fill:#5944ff;stroke:#5944ff;stroke-miterlimit:10}</style><path fill-rule="evenodd" class="a" d="m100 31.8c-0.2 0.7-0.3 1.3-0.5 1.9q-1.4 4.9-5.9 7.2-10.5 5.4-21 10.8c-4.5 2.4-9 4.7-13.5 7-6.1 3-12.2 3-18.2 0q-17.2-8.9-34.4-17.8c-4.2-2.1-6.4-5.7-6.5-10.4 0-4.8 2.3-8.3 6.5-10.5 11.4-6 23-11.8 34.4-17.8 2.1-1 4.4-1.8 6.7-2 0.2-0.1 0.3-0.1 0.5-0.2q1.9 0 3.9 0c0.1 0.1 0.2 0.1 0.3 0.1 2.7 0.3 5.2 1.3 7.6 2.5q6.3 3.3 12.7 6.6 10.4 5.4 20.9 10.8c3 1.5 5.1 3.9 6 7.2 0.2 0.6 0.3 1.3 0.5 1.9q0 1.4 0 2.7zm-50-24c-2 0-3.9 0.5-5.6 1.4q-16.9 8.7-33.7 17.4-0.3 0.2-0.6 0.3c-1.5 0.8-2.2 1.9-2.3 3.5 0 1.7 0.8 2.9 2.3 3.6 11.6 6 23.1 11.9 34.7 17.9 3.6 1.8 7.2 1.6 10.8-0.2q17.1-8.8 34.2-17.6c1.4-0.8 2.4-1.9 2.4-3.6 0-1.7-0.9-2.9-2.5-3.7q-17-8.8-34-17.5c-1.8-1-3.7-1.5-5.7-1.5z"/><path fill-rule="evenodd" class="a" d="m100 54.9c-0.6 1.6-1.9 2.4-3.3 3.2q-18.4 9.8-36.7 19.6c-6.7 3.6-13.3 3.7-19.9 0.1-12.6-6.8-25.2-13.5-37.7-20.3-1.7-0.9-2.6-2.4-2.4-4.1 0.3-1.7 1.6-3 3.3-3.3 1-0.2 1.9 0.1 2.8 0.6q13.4 7.2 26.8 14.3 5.6 3.1 11.3 6.1 5.8 3.1 11.6 0 12.8-6.9 25.6-13.7c4-2.2 8.1-4.2 12-6.5 2.4-1.4 5.4-1.2 6.6 2.2q0 0.9 0 1.8z"/><path fill-rule="evenodd" class="a" d="m100 74.2c-0.5 1.5-1.5 2.5-2.9 3.2q-18.6 9.9-37.2 19.9c-6.6 3.6-13.2 3.6-19.8 0-12.5-6.8-25.1-13.5-37.7-20.2-1.8-1-2.6-2.6-2.3-4.2 0.2-1.7 1.5-3 3.2-3.3 1.1-0.2 2 0.2 3 0.7q16.2 8.7 32.5 17.4 2.7 1.5 5.4 2.9 5.8 3.2 11.6 0 19-10.1 38-20.3c1.3-0.7 2.5-1 3.9-0.4 1.2 0.5 1.8 1.6 2.3 2.7q0 0.8 0 1.6z"/><path fill-rule="evenodd" class="b" d="m0 97.3c0.6-1.1 1.5-1.5 2.7-1.5q47.3 0.1 94.6 0.1c0.6 0 1.2-0.1 1.7 0.3 1.5 0.9 1.3 2.8-0.6 3.8q-48.4 0-96.8 0-1.1-0.5-1.6-1.6 0-0.5 0-1.1z"/><path fill-rule="evenodd" class="b" d="m70.9 23.1q0 0.7 0 1.3c0.1 3-0.2 6 0.1 9 3 0.2 5.9 0 8.9 0.1 0.7 0 1.3 0 2 0.1 4.4 0.5 7.4 2.9 9 7 1.6 4 1 7.9-1.9 11.1q-13.9 15.7-27.9 31.3c-5.6 6.2-16.6 6.1-22.3-0.2-9.2-10.3-18.4-20.6-27.6-31-3.1-3.5-3.7-7.6-1.8-11.8 1.9-4.2 5.2-6.4 9.8-6.6 3-0.1 6 0 9 0 0.8 0 1-0.2 1-0.9q-0.1-9 0-17.9c0-6.7 4.4-12.4 10.8-14.1q1.9-0.5 3.9-0.5 6.1 0 12.3 0c8.3 0 14.7 6.4 14.7 14.8q0 4.1 0 8.3zm-37.6 1.3q0.1 5.4 0 10.8c0 1.6-0.8 2.4-2.4 2.4-4.1 0-8.1-0.1-12.1 0.1-2.9 0.1-4.8 1.7-5.8 4.4-1 2.6-0.6 5 1.3 7q13.6 15.3 27.3 30.6c4.4 4.9 12.4 5 16.7 0.1q13.8-15.3 27.4-30.7c1.4-1.5 2-3.4 1.7-5.5-0.6-3.7-3.2-6-7.1-6-3.6-0.1-7.2 0-10.8 0-2.2 0-2.8-0.7-2.8-2.8q0-9.8-0.1-19.6c0-0.8 0-1.6-0.1-2.4-0.9-5.1-5.1-8.6-10.6-8.6q-5.9-0.1-11.8 0c-6.3 0-10.7 4.4-10.7 10.7q-0.1 4.8-0.1 9.5z"/><g style="display:none"></g></svg>