<svg version="1.2" xmlns="http://www.w3.org/2000/svg" viewBox="0 0 35 100" width="35" height="100"><style>.a{fill:#2c3e50}</style><path fill-rule="evenodd" class="a" d="m33 50.4c0 5.1-1.6 9.4-4.9 12.9-7.3 7.9-14.7 15.8-22.1 23.7-0.3 0.3-0.7 0.7-1.1 1-1 0.8-2.4 0.7-3.4-0.1-0.9-0.9-1.1-2.2-0.5-3.4 0.2-0.4 0.6-0.7 0.9-1q10.8-11.6 21.7-23.2c5.4-5.9 5.4-13.2-0.1-19q-10.8-11.7-21.7-23.3c-0.7-0.7-1.2-1.4-1.2-2.4 0.1-1.1 0.7-2 1.7-2.4 1-0.4 2-0.3 2.8 0.5 1 1 2 2 2.9 3q10 10.7 20 21.4c3.3 3.5 4.9 7.7 5 12.3z"/></svg>